#!OML:ASF H:\MichaelJackson\Top Level 1\Subject 1\Session 1\male.ASF
:FULLY-SPECIFIED
:DEGREES
552
root -6.46003 16.9162 27.1671 -356.79 -13.0444 -8.43195
lowerback 2.10156 4.57865 1.81498
upperback 0.591726 6.13673 -0.561658
thorax -0.31437 3.06955 -1.71451
lowerneck -10.2576 -0.958582 3.80916
upperneck 13.4973 -2.13824 1.42258
head 5.75088 -0.740798 -0.344083
rclavicle -4.6615e-014 -3.97569e-014
rhumerus -44.5193 1.02898 -73.6311
rradius 54.4643
rwrist 11.6905
rhand -21.2635 -22.0686
rfingers 7.12502
rthumb 5.11989 -51.9867
lclavicle -4.6615e-014 -3.97569e-014
lhumerus -45.9838 5.2805 55.3486
lradius 68.6243
lwrist 25.1239
lhand -44.3635 -1.0947
lfingers 7.12502
lthumb -17.1711 28.1666
rfemur -20.0789 -6.5907 28.2675
rtibia 32.7943
rfoot -9.38189 -7.87747
rtoes -0.127795
lfemur -29.8629 5.33712 -15.0225
ltibia 50.8822
lfoot -17.0867 8.41422
ltoes 11.9549
553
root -6.47339 16.9059 27.2007 -356.452 -13.538 -8.70764
lowerback 2.15443 4.55297 2.13506
upperback 0.626305 6.11089 -0.421628
thorax -0.291356 3.05722 -1.74978
lowerneck -10.2237 -0.784835 3.9625
upperneck 13.1226 -1.87817 1.17068
head 5.62616 -0.63339 -0.425904
rclavicle -6.31141e-014 3.18055e-015
rhumerus -44.0509 2.70632 -72.9245
rradius 54.5791
rwrist 13.3554
rhand -19.5657 -20.5837
rfingers 7.12502
rthumb 6.7591 -50.4558
lclavicle -6.31141e-014 3.18055e-015
lhumerus -44.5616 6.73516 53.2447
lradius 67.9946
lwrist 29.6015
lhand -44.008 0.458112
lfingers 7.12502
lthumb -16.8289 29.7489
rfemur -20.2176 -7.0913 28.6114
rtibia 32.8114
rfoot -9.77418 -7.63857
rtoes -1.04833
lfemur -30.17 5.75769 -14.738
ltibia 50.3517
lfoot -17.3896 9.35721
ltoes 12.8108
554
root -6.48603 16.8967 27.2329 -356.112 -14.0169 -9.00082
lowerback 2.21204 4.54722 2.42199
upperback 0.655355 6.11132 -0.268101
thorax -0.280454 3.05779 -1.75433
lowerneck -10.178 -0.628275 4.1126
upperneck 12.7382 -1.64497 0.941945
head 5.49763 -0.537231 -0.502108
rclavicle 2.55438e-014 -6.36111e-015
rhumerus -43.4861 4.18332 -72.0931
rradius 54.5935
rwrist 14.8422
rhand -17.5944 -18.9473
rfingers 7.12502
rthumb 8.66173 -48.7496
lclavicle 2.55438e-014 -6.36111e-015
lhumerus -43.1552 8.16556 51.2788
lradius 67.4052
lwrist 34.4556
lhand -42.6328 2.25546
lfingers 7.12502
lthumb -15.5047 31.6538
rfemur -20.3672 -7.62257 28.9748
rtibia 32.8353
rfoot -10.1152 -7.44333
rtoes -1.86333
lfemur -30.4869 6.32143 -14.4567
ltibia 49.9278
lfoot -17.8549 10.3924
ltoes 13.846
555
root -6.49889 16.8892 27.2642 -355.786 -14.4985 -9.27648
lowerback 2.27765 4.56774 2.6402
upperback 0.680858 6.14572 -0.118687
thorax -0.282719 3.07506 -1.72687
lowerneck -10.109 -0.489706 4.25589
upperneck 12.3314 -1.4412 0.759447
head 5.35939 -0.452504 -0.564971
rclavicle 3.3694e-014 1.59028e-015
rhumerus -42.8159 5.40079 -71.1579
rradius 54.4911
rwrist 16.0713
rhand -15.3512 -17.2723
rfingers 7.12502
rthumb 10.826 -46.9733
lclavicle 3.3694e-014 1.59028e-015
lhumerus -41.7735 9.44831 49.4536
lradius 66.845
lwrist 39.4929
lhand -40.1517 4.33898
lfingers 7.12502
lthumb -13.1141 33.9066
rfemur -20.5058 -8.11454 29.3186
rtibia 32.8617
rfoot -10.4135 -7.31944
rtoes -2.54711
lfemur -30.7944 7.04492 -14.2179
ltibia 49.583
lfoot -18.4408 11.4672
ltoes 14.9775
556
root -6.51274 16.8833 27.2948 -355.485 -14.9826 -9.5142
lowerback 2.3526 4.6131 2.77433
upperback 0.702443 6.21178 0.0117758
thorax -0.299378 3.10783 -1.67426
lowerneck -10.0205 -0.367716 4.40089
upperneck 11.9055 -1.26697 0.630197
head 5.2129 -0.378505 -0.613764
rclavicle -7.18607e-014 1.98785e-014
rhumerus -42.0308 6.314 -70.1496
rradius 54.2528
rwrist 16.9839
rhand -12.9034 -15.6696
rfingers 7.12502
rthumb 13.1863 -45.2326
lclavicle -7.18607e-014 1.98785e-014
lhumerus -40.4089 10.4722 47.7651
lradius 66.277
lwrist 44.4721
lhand -36.6094 6.77806
lfingers 7.12502
lthumb -9.69778 36.5348
rfemur -20.618 -8.51369 29.6194
rtibia 32.8853
rfoot -10.6836 -7.27856
rtoes -3.0385
lfemur -31.0832 7.92438 -14.0415
ltibia 49.2872
lfoot -19.1051 12.5053
ltoes 16.2991
557
root -6.52799 16.8792 27.3251 -355.212 -15.4618 -9.69696
lowerback 2.42839 4.68056 2.81712
upperback 0.720311 6.30526 0.111167
thorax -0.325324 3.15408 -1.60415
lowerneck -9.90791 -0.26292 4.54832
upperneck 11.4546 -1.12284 0.559894
head 5.05534 -0.315527 -0.646867
rclavicle -7.18607e-014 7.15625e-015
rhumerus -41.1361 6.88046 -69.0955
rradius 53.8778
rwrist 17.5536
rhand -10.2793 -14.2814
rfingers 7.12502
rthumb 15.7147 -43.6633
lclavicle -7.18607e-014 7.15625e-015
lhumerus -39.0517 11.1046 46.2244
lradius 65.6889
lwrist 49.1175
lhand -32.1585 9.63639
lfingers 7.12502
lthumb -5.4018 39.5475
rfemur -20.6949 -8.80442 29.8577
rtibia 32.9012
rfoot -10.9376 -7.30557
rtoes -3.3881
lfemur -31.3465 8.93494 -13.943
ltibia 49.0112
lfoot -19.7694 13.4619
ltoes 17.6791
558
root -6.54475 16.8769 27.3561 -354.968 -15.9218 -9.83147
lowerback 2.49444 4.76442 2.78703
upperback 0.734867 6.41844 0.177137
thorax -0.352658 3.21014 -1.52804
lowerneck -9.78401 -0.174798 4.69368
upperneck 10.9952 -1.00808 0.552278
head 4.89389 -0.263169 -0.662483
rclavicle 2.44505e-014 -1.51076e-014
rhumerus -40.1391 7.07792 -68.0216
rradius 53.3597
rwrist 17.7759
rhand -7.56558 -13.2218
rfingers 7.12502
rthumb 18.3268 -42.3784
lclavicle 2.44505e-014 -1.51076e-014
lhumerus -37.6957 11.2257 44.8541
lradius 65.0689
lwrist 53.0852
lhand -27.0568 12.7963
lfingers 7.12502
lthumb -0.474937 42.7756
rfemur -20.7321 -8.99183 30.0385
rtibia 32.9041
rfoot -11.1797 -7.3709
rtoes -3.58218
lfemur -31.5785 10.0439 -13.9109
ltibia 48.7338
lfoot -20.3695 14.3064
ltoes 19.0138
559
root -6.56271 16.8766 27.3887 -354.756 -16.3464 -9.92871
lowerback 2.5438 4.85655 2.7047
upperback 0.745644 6.54069 0.213891
thorax -0.376953 3.27078 -1.45216
lowerneck -9.63614 -0.100848 4.83951
upperneck 10.5291 -0.917047 0.599237
head 4.72689 -0.219496 -0.663149
rclavicle 1.17283e-014 -2.70347e-014
rhumerus -39.0599 6.89887 -66.9517
rradius 52.7029
rwrist 17.65
rhand -4.89493 -12.5669
rfingers 7.12502
rthumb 20.8944 -41.4616
lclavicle 1.17283e-014 -2.70347e-014
lhumerus -36.3524 10.735 43.6904
lradius 64.4562
lwrist 56.0808
lhand -21.7847 16.0388
lfingers 7.12502
lthumb 4.61669 45.9685
rfemur -20.7215 -9.10284 30.1715
rtibia 32.8886
rfoot -11.4121 -7.4433
rtoes -3.68007
lfemur -31.7682 11.2077 -13.9282
ltibia 48.441
lfoot -20.8421 15.045
ltoes 20.2264
560
root -6.58136 16.8776 27.4235 -354.567 -16.7246 -10.0139
lowerback 2.56866 4.95202 2.60089
upperback 0.750724 6.66604 0.232373
thorax -0.394062 3.33307 -1.38137
lowerneck -9.48058 -0.0431798 4.97744
upperneck 10.0812 -0.850592 0.688783
head 4.56449 -0.185793 -0.651422
rclavicle -9.44227e-014 -2.14687e-014
rhumerus -37.9197 6.34388 -65.8961
rradius 51.9194
rwrist 17.2203
rhand -2.44164 -12.3478
rfingers 7.12502
rthumb 23.2497 -40.9643
lclavicle -9.44227e-014 -2.14687e-014
lhumerus -35.0455 9.56801 42.7656
lradius 63.8931
lwrist 57.7993
lhand -16.6233 19.0303
lfingers 7.12502
lthumb 9.59885 48.7916
rfemur -20.6648 -9.16145 30.2824
rtibia 32.8486
rfoot -11.628 -7.50162
rtoes -3.74777
lfemur -31.9186 12.3935 -13.9649
ltibia 48.1316
lfoot -21.1572 15.6986
ltoes 21.2378
561
root -6.60007 16.8797 27.4613 -354.395 -17.0489 -10.1147
lowerback 2.55966 5.04689 2.5045
upperback 0.748087 6.78991 0.247907
thorax -0.399596 3.39477 -1.31487
lowerneck -9.31441 6.01497e-005 5.10399
upperneck 9.66481 -0.803979 0.808824
head 4.41025 -0.160516 -0.630149
rclavicle -5.70512e-014 -1.35174e-014
rhumerus -36.762 5.41782 -64.8611
rradius 51.0405
rwrist 16.5552
rhand -0.390957 -12.5486
rfingers 7.12502
rthumb 25.2159 -40.9026
lclavicle -5.70512e-014 -1.35174e-014
lhumerus -33.8223 7.71291 42.101
lradius 63.4514
lwrist 58.023
lhand -11.8435 21.4879
lfingers 7.12502
lthumb 14.2078 50.982
rfemur -20.5608 -9.19727 30.3974
rtibia 32.7807
rfoot -11.8281 -7.52719
rtoes -3.81562
lfemur -32.0272 13.5681 -13.9875
ltibia 47.8118
lfoot -21.3042 16.3116
ltoes 22.0376
562
root -6.61821 16.8825 27.5026 -354.232 -17.3098 -10.2472
lowerback 2.50957 5.13864 2.43125
upperback 0.737496 6.90935 0.274025
thorax -0.38963 3.45444 -1.24656
lowerneck -9.14536 0.0258189 5.21189
upperneck 9.29551 -0.779302 0.944192
head 4.26998 -0.145528 -0.602957
rclavicle -5.31749e-014 -7.95139e-015
rhumerus -35.6332 4.14778 -63.8453
rradius 50.1129
rwrist 15.6861
rhand 1.05944 -13.1051
rfingers 7.12502
rthumb 26.6047 -41.2561
lclavicle -5.31749e-014 -7.95139e-015
lhumerus -32.7287 5.2274 41.7009
lradius 63.1865
lwrist 56.6107
lhand -7.47062 23.3055
lfingers 7.12502
lthumb 18.4181 52.4536
rfemur -20.4132 -9.23847 30.5323
rtibia 32.685
rfoot -12.0152 -7.51677
rtoes -3.89798
lfemur -32.0984 14.6985 -13.974
ltibia 47.4957
lfoot -21.2953 16.9188
ltoes 22.6485
563
root -6.63528 16.8857 27.5478 -354.08 -17.5036 -10.4146
lowerback 2.41915 5.22778 2.38436
upperback 0.717579 7.02526 0.318476
thorax -0.366466 3.51246 -1.17033
lowerneck -9.0373 0.0288676 5.24413
upperneck 8.68043 -0.786789 1.16329
head 4.50759 -0.144516 -0.599958
rclavicle -6.05299e-014 1.35174e-014
rhumerus -34.5964 2.57601 -62.8526
rradius 49.1944
rwrist 14.6409
rhand 1.69172 -13.9249
rfingers 7.12502
rthumb 27.2097 -41.9826
lclavicle -6.05299e-014 1.35174e-014
lhumerus -31.7921 2.24448 41.5491
lradius 63.1234
lwrist 53.5572
lhand -3.38798 24.361
lfingers 7.12502
lthumb 22.3416 53.0892
rfemur -20.2254 -9.30997 30.6897
rtibia 32.5677
rfoot -12.1873 -7.47186
rtoes -4.03288
lfemur -32.1315 15.7547 -13.9157
ltibia 47.1986
lfoot -21.174 17.5429
ltoes 23.1227
564
root -6.65084 16.8889 27.5967 -353.936 -17.6174 -10.6094
lowerback 2.29174 5.31117 2.35852
upperback 0.682875 7.13354 0.384775
thorax -0.338765 3.56663 -1.08022
lowerneck -8.8844 0.0106759 5.29514
upperneck 8.45377 -0.815054 1.29771
head 4.39347 -0.156101 -0.56362
rclavicle 4.47266e-015 3.97569e-015
rhumerus -33.7138 0.780223 -61.8869
rradius 48.3546
rwrist 13.3929
rhand 1.37345 -14.9011
rfingers 7.12502
rthumb 26.9052 -43.0061
lclavicle 4.47266e-015 3.97569e-015
lhumerus -31.0191 -1.04475 41.6095
lradius 63.2319
lwrist 48.9509
lhand 0.594804 24.638
lfingers 7.12502
lthumb 26.16 52.8557
rfemur -20.0118 -9.43488 30.8635
rtibia 32.4415
rfoot -12.3545 -7.39069
rtoes -4.24661
lfemur -32.135 16.6987 -13.8137
ltibia 46.9339
lfoot -20.9851 18.1798
ltoes 23.4215
